# xmcd
#
# Track frame offsets:
#	150
#	12625
#	24687
#	38120
#	50742
#	64600
#	75292
#	88682
#	103345
#	114910
#
# Disc length: 1694 seconds
# Revision: 0
# Processed by: cddbd v1.5.2PL0 Copyright (c) Steve Scherf et al.
# Submitted via: dBpowerAMP V12.0
#
DISCID=7b069c0a
DTITLE=Beau Braswell - If You Don't Love Me Anymore
DYEAR=2001
DGENRE=Country
TTITLE0=4-Wheel Drive Crazy
TTITLE1=If You Don't Love Me Anymore
TTITLE2=Every Other Friday
TTITLE3=Makin' The World Go Round
TTITLE4=Do You Wanna Dance
TTITLE5=Another Thing Coming
TTITLE6=You Don't Love Me Anymore
TTITLE7=She Won't Be Back For Me
TTITLE8=Kiss Me
TTITLE9=Metal Rodeo
EXTD=
EXTT0=
EXTT1=
EXTT2=
EXTT3=
EXTT4=
EXTT5=
EXTT6=
EXTT7=
EXTT8=
EXTT9=
PLAYORDER=
